<svg xmlns="http://www.w3.org/2000/svg"  viewBox="0 0 80 80" width="80px" height="80px"><path d="M 34.734375 8 C 33.248923 8 31.976098 9.1058496 31.765625 10.576172 L 30.716797 17.912109 C 28.849002 18.698042 27.105054 19.707859 25.513672 20.917969 L 18.634766 18.15625 C 17.256067 17.602681 15.662779 18.15365 14.919922 19.439453 L 9.6542969 28.560547 C 8.9109653 29.847197 9.2312367 31.503114 10.400391 32.419922 L 16.226562 36.992188 C 16.101701 37.981518 16 38.97855 16 40 C 16 41.02145 16.102351 42.018873 16.226562 43.007812 L 10.400391 47.580078 L 10.398438 47.580078 C 9.2305276 48.497402 8.9111329 50.153093 9.6542969 51.439453 L 14.919922 60.560547 C 15.662779 61.846376 17.256067 62.397319 18.634766 61.84375 L 25.513672 59.083984 C 27.104739 60.293255 28.848046 61.302185 30.714844 62.087891 L 31.763672 69.423828 C 31.974191 70.89415 33.248415 72 34.734375 72 L 45.265625 72 C 46.751077 72 48.025856 70.89415 48.236328 69.423828 L 49.285156 62.087891 C 51.152708 61.302171 52.895827 60.293372 54.486328 59.083984 L 61.365234 61.84375 C 62.743933 62.397319 64.337221 61.84635 65.080078 60.560547 L 70.345703 51.439453 C 71.087542 50.152803 70.768763 48.496886 69.599609 47.580078 L 63.773438 43.007812 C 63.898299 42.018482 64 41.02145 64 40 C 64 38.97855 63.897649 37.981127 63.773438 36.992188 L 69.599609 32.419922 L 69.601562 32.419922 C 70.769473 31.502598 71.088867 29.846907 70.345703 28.560547 L 65.080078 19.439453 C 64.337221 18.153624 62.743933 17.602681 61.365234 18.15625 L 54.486328 20.916016 C 52.895261 19.706745 51.151954 18.697815 49.285156 17.912109 L 48.236328 10.576172 C 48.025856 9.1058496 46.751585 8 45.265625 8 L 34.734375 8 z M 34.734375 10 L 45.265625 10 C 45.771665 10 46.184332 10.359697 46.255859 10.859375 L 47.460938 19.296875 L 48.005859 19.507812 C 50.090653 20.322603 52.0202 21.44666 53.740234 22.824219 L 54.195312 23.189453 L 62.111328 20.011719 C 62.580629 19.823287 63.096466 20.001279 63.349609 20.439453 L 68.613281 29.560547 C 68.866117 29.998187 68.763325 30.533027 68.365234 30.845703 L 61.664062 36.105469 L 61.751953 36.681641 C 61.915538 37.763591 62 38.872368 62 40 C 62 41.127632 61.91445 42.23502 61.75 43.316406 L 61.662109 43.892578 L 68.365234 49.154297 C 68.762081 49.465489 68.865442 50.004057 68.613281 50.441406 L 63.349609 59.560547 C 63.096466 59.998718 62.580629 60.176713 62.111328 59.988281 L 54.195312 56.810547 L 53.740234 57.175781 C 52.021351 58.553184 50.09159 59.677404 48.005859 60.492188 L 47.460938 60.703125 L 46.255859 69.140625 C 46.184331 69.640303 45.770173 70 45.265625 70 L 34.734375 70 C 34.228335 70 33.815668 69.640303 33.744141 69.140625 L 32.539062 60.703125 L 31.994141 60.492188 C 29.909347 59.677397 27.9798 58.55334 26.259766 57.175781 L 25.804688 56.810547 L 17.888672 59.988281 C 17.419371 60.176713 16.903534 59.998721 16.650391 59.560547 L 11.386719 50.439453 C 11.133883 50.001813 11.236675 49.466973 11.634766 49.154297 L 18.335938 43.894531 L 18.248047 43.318359 C 18.084462 42.236409 18 41.127632 18 40 C 18 38.872368 18.08554 37.76498 18.25 36.683594 L 18.337891 36.107422 L 11.634766 30.845703 C 11.23792 30.534511 11.13405 29.997897 11.386719 29.560547 L 16.652344 20.439453 C 16.905487 20.001282 17.421324 19.823287 17.890625 20.011719 L 25.804688 23.189453 L 26.261719 22.824219 C 27.980461 21.44693 29.911204 20.322641 31.996094 19.507812 L 32.539062 19.296875 L 33.744141 10.859375 C 33.815668 10.359697 34.229827 10 34.734375 10 z M 40.019531 21 C 39.469531 21 39.019531 21.45 39.019531 22 C 39.019531 22.55 39.459531 23 40.019531 23 C 40.569531 23 41.019531 22.55 41.019531 22 C 41.019531 21.45 40.569531 21 40.019531 21 z M 36.1875 21.460938 C 36.059063 21.438437 35.924062 21.440703 35.789062 21.470703 C 35.249063 21.590703 34.919063 22.120156 35.039062 22.660156 C 35.149062 23.130156 35.559766 23.439453 36.009766 23.439453 C 36.089766 23.439453 36.160234 23.429922 36.240234 23.419922 C 36.770234 23.299922 37.110234 22.760703 36.990234 22.220703 C 36.900234 21.815703 36.572812 21.528437 36.1875 21.460938 z M 43.851562 21.466797 C 43.46625 21.532891 43.140781 21.825469 43.050781 22.230469 C 42.920781 22.770469 43.260781 23.299688 43.800781 23.429688 C 43.870781 23.439688 43.949531 23.449219 44.019531 23.449219 C 44.479531 23.449219 44.89 23.139922 45 22.669922 C 45.12 22.129922 44.78 21.600469 44.25 21.480469 C 44.115 21.447969 43.98 21.444766 43.851562 21.466797 z M 32.160156 22.771484 C 32.03125 22.777734 31.901797 22.809141 31.779297 22.869141 C 31.279297 23.109141 31.070547 23.699219 31.310547 24.199219 C 31.480547 24.559219 31.840937 24.769531 32.210938 24.769531 C 32.360938 24.769531 32.500625 24.739922 32.640625 24.669922 C 33.140625 24.429922 33.349375 23.829844 33.109375 23.339844 C 32.929375 22.964844 32.546875 22.752734 32.160156 22.771484 z M 47.873047 22.78125 C 47.482109 22.7625 47.099922 22.974609 46.919922 23.349609 C 46.679922 23.849609 46.890625 24.439453 47.390625 24.689453 C 47.530625 24.749453 47.680312 24.779297 47.820312 24.779297 C 48.190312 24.779297 48.550703 24.580703 48.720703 24.220703 C 48.960703 23.720703 48.749766 23.120859 48.259766 22.880859 C 48.134766 22.820859 48.003359 22.7875 47.873047 22.78125 z M 28.908203 24.914062 C 28.654453 24.885313 28.389922 24.955859 28.169922 25.130859 C 27.739922 25.470859 27.669766 26.099297 28.009766 26.529297 C 28.209766 26.779297 28.500781 26.910156 28.800781 26.910156 C 29.010781 26.910156 29.229922 26.839453 29.419922 26.689453 C 29.849922 26.349453 29.920078 25.719062 29.580078 25.289062 C 29.405078 25.069063 29.161953 24.942812 28.908203 24.914062 z M 51.117188 24.941406 C 50.863438 24.970156 50.619219 25.095547 50.449219 25.310547 C 50.099219 25.740547 50.169375 26.370938 50.609375 26.710938 C 50.789375 26.860938 51.010469 26.929687 51.230469 26.929688 C 51.520469 26.929687 51.809766 26.800547 52.009766 26.560547 C 52.349766 26.130547 52.289609 25.500391 51.849609 25.150391 C 51.634609 24.980391 51.370937 24.912656 51.117188 24.941406 z M 25.835938 27.761719 C 25.580937 27.790469 25.335156 27.915859 25.160156 28.130859 C 24.820156 28.560859 24.890313 29.189062 25.320312 29.539062 C 25.500312 29.679062 25.719453 29.759766 25.939453 29.759766 C 26.239453 29.759766 26.530469 29.630859 26.730469 29.380859 L 26.720703 29.380859 C 27.070703 28.950859 27.000312 28.320703 26.570312 27.970703 C 26.355312 27.800703 26.090938 27.732969 25.835938 27.761719 z M 54.189453 27.791016 C 53.935703 27.762266 53.669219 27.83 53.449219 28 C 53.019219 28.34 52.950781 28.970156 53.300781 29.410156 C 53.490781 29.650156 53.780078 29.779297 54.080078 29.779297 C 54.300078 29.779297 54.519219 29.710547 54.699219 29.560547 C 55.129219 29.220547 55.199375 28.590156 54.859375 28.160156 C 54.684375 27.945156 54.443203 27.819766 54.189453 27.791016 z M 33 29.234375 L 33 31 L 33 50.765625 L 50.943359 40 L 33 29.234375 z M 23.84375 31.162109 C 23.452813 31.142891 23.070625 31.353203 22.890625 31.720703 C 22.650625 32.220703 22.859375 32.820547 23.359375 33.060547 C 23.499375 33.130547 23.649062 33.160156 23.789062 33.160156 C 24.159063 33.160156 24.519453 32.949609 24.689453 32.599609 C 24.929453 32.099609 24.730469 31.499766 24.230469 31.259766 C 24.105469 31.199766 23.974062 31.168516 23.84375 31.162109 z M 56.175781 31.191406 C 56.046406 31.197656 55.914062 31.229063 55.789062 31.289062 C 55.289063 31.529062 55.080312 32.130859 55.320312 32.630859 C 55.490312 32.980859 55.850703 33.189453 56.220703 33.189453 C 56.370703 33.189453 56.520156 33.159844 56.660156 33.089844 C 57.160156 32.849844 57.359141 32.259766 57.119141 31.759766 C 56.939141 31.384766 56.563906 31.172656 56.175781 31.191406 z M 35 32.765625 L 47.056641 40 L 35 47.234375 L 35 32.765625 z M 22.28125 34.976562 C 21.895938 35.042656 21.570469 35.335234 21.480469 35.740234 C 21.360469 36.270234 21.690469 36.809453 22.230469 36.939453 C 22.310469 36.949453 22.380937 36.960938 22.460938 36.960938 C 22.910937 36.960938 23.319688 36.649687 23.429688 36.179688 C 23.549688 35.649687 23.219687 35.110234 22.679688 34.990234 C 22.544688 34.957734 22.409688 34.954531 22.28125 34.976562 z M 57.728516 35.011719 C 57.600078 34.988438 57.465078 34.989531 57.330078 35.019531 C 56.790078 35.139531 56.460078 35.680703 56.580078 36.220703 C 56.680078 36.680703 57.100781 37 57.550781 37 C 57.630781 37 57.699531 36.990703 57.769531 36.970703 C 58.309531 36.850703 58.649297 36.309297 58.529297 35.779297 L 58.529297 35.769531 C 58.439297 35.372031 58.113828 35.081562 57.728516 35.011719 z M 22 38.960938 C 21.45 38.960938 21 39.410938 21 39.960938 C 21 40.510937 21.44 40.960938 22 40.960938 C 22.55 40.960938 23 40.520938 23 39.960938 C 23 39.410938 22.55 38.960938 22 38.960938 z M 58 39 C 57.45 39 57 39.45 57 40 L 57 40.039062 L 57 40.070312 C 57 40.620312 57.44 41.070078 58 41.080078 C 58.55 41.080078 59 40.630078 59 40.080078 L 59 40.039062 L 59 40 C 59 39.45 58.55 39 58 39 z M 22.617188 42.982422 C 22.489687 42.958984 22.355703 42.960234 22.220703 42.990234 C 21.680703 43.110234 21.340937 43.649453 21.460938 44.189453 C 21.570938 44.649453 21.979453 44.970703 22.439453 44.970703 C 22.509453 44.970703 22.580156 44.959453 22.660156 44.939453 C 23.200156 44.819453 23.530156 44.29 23.410156 43.75 C 23.320156 43.345 22.999688 43.052734 22.617188 42.982422 z M 57.363281 43.089844 C 56.980312 43.157344 56.658047 43.444609 56.560547 43.849609 C 56.440547 44.389609 56.770547 44.920781 57.310547 45.050781 C 57.390547 45.070781 57.459062 45.080078 57.539062 45.080078 C 57.989063 45.080078 58.399766 44.760781 58.509766 44.300781 C 58.629766 43.760781 58.299766 43.229609 57.759766 43.099609 C 57.624766 43.069609 57.490938 43.067344 57.363281 43.089844 z M 23.714844 46.771484 C 23.585469 46.777734 23.455078 46.809141 23.330078 46.869141 C 22.830078 47.109141 22.619375 47.710938 22.859375 48.210938 C 23.029375 48.560937 23.389766 48.769531 23.759766 48.769531 C 23.909766 48.769531 24.049453 48.739688 24.189453 48.679688 C 24.689453 48.439687 24.900156 47.839844 24.660156 47.339844 C 24.480156 46.964844 24.102969 46.752734 23.714844 46.771484 z M 56.244141 46.876953 C 55.853203 46.853984 55.469062 47.064453 55.289062 47.439453 C 55.049062 47.929453 55.26 48.529531 55.75 48.769531 C 55.89 48.839531 56.039453 48.869141 56.189453 48.869141 C 56.559453 48.869141 56.919844 48.670547 57.089844 48.310547 C 57.329844 47.810547 57.130859 47.220469 56.630859 46.980469 C 56.505859 46.917969 56.374453 46.884609 56.244141 46.876953 z M 26.013672 50.193359 C 25.759922 50.164609 25.494297 50.235156 25.279297 50.410156 C 24.839297 50.750156 24.769141 51.380547 25.119141 51.810547 C 25.309141 52.060547 25.600391 52.189453 25.900391 52.189453 C 26.120391 52.189453 26.339531 52.120703 26.519531 51.970703 C 26.949531 51.630703 27.029688 51.000312 26.679688 50.570312 C 26.509688 50.350313 26.267422 50.222109 26.013672 50.193359 z M 53.925781 50.283203 C 53.670781 50.310703 53.425 50.435391 53.25 50.650391 C 52.91 51.080391 52.980156 51.710781 53.410156 52.050781 C 53.590156 52.200781 53.809297 52.269531 54.029297 52.269531 C 54.319297 52.269531 54.610547 52.150391 54.810547 51.900391 C 55.160547 51.470391 55.090156 50.84 54.660156 50.5 C 54.445156 50.325 54.180781 50.255703 53.925781 50.283203 z M 28.634766 53.050781 C 28.379766 53.079531 28.135938 53.204922 27.960938 53.419922 C 27.610938 53.849922 27.679375 54.480312 28.109375 54.820312 C 28.299375 54.970313 28.520234 55.039062 28.740234 55.039062 C 29.030234 55.039062 29.319531 54.919922 29.519531 54.669922 C 29.869531 54.239922 29.799141 53.609766 29.369141 53.259766 C 29.154141 53.089766 28.889766 53.022031 28.634766 53.050781 z M 51.285156 53.121094 C 51.030156 53.092344 50.765781 53.160078 50.550781 53.330078 C 50.120781 53.670078 50.050625 54.300469 50.390625 54.730469 C 50.590625 54.980469 50.879688 55.109375 51.179688 55.109375 C 51.389688 55.109375 51.610781 55.040391 51.800781 54.900391 C 52.230781 54.550391 52.300938 53.920234 51.960938 53.490234 C 51.785937 53.275234 51.540156 53.149844 51.285156 53.121094 z M 32.193359 55.201172 C 31.802422 55.181953 31.420234 55.392266 31.240234 55.759766 C 31.000234 56.259766 31.210938 56.859609 31.710938 57.099609 C 31.850938 57.169609 32.000625 57.199219 32.140625 57.199219 C 32.510625 57.199219 32.869062 56.990625 33.039062 56.640625 C 33.279062 56.140625 33.080078 55.540781 32.580078 55.300781 C 32.455078 55.240781 32.323672 55.207578 32.193359 55.201172 z M 47.710938 55.248047 C 47.582031 55.252891 47.452578 55.282344 47.330078 55.339844 L 47.330078 55.349609 C 46.830078 55.579609 46.619609 56.179688 46.849609 56.679688 C 47.029609 57.039687 47.379766 57.25 47.759766 57.25 C 47.899766 57.25 48.049453 57.220391 48.189453 57.150391 C 48.689453 56.910391 48.900156 56.310313 48.660156 55.820312 C 48.480156 55.445312 48.097656 55.233516 47.710938 55.248047 z M 35.771484 56.556641 C 35.386172 56.622734 35.060703 56.915312 34.970703 57.320312 C 34.840703 57.850312 35.180703 58.389531 35.720703 58.519531 C 35.790703 58.529531 35.869453 58.539062 35.939453 58.539062 C 36.399453 58.539062 36.809922 58.229531 36.919922 57.769531 C 37.039922 57.229531 36.699922 56.690312 36.169922 56.570312 C 36.034922 56.537813 35.899922 56.534609 35.771484 56.556641 z M 44.126953 56.582031 C 43.999453 56.558594 43.865469 56.559844 43.730469 56.589844 C 43.190469 56.709844 42.850703 57.239297 42.970703 57.779297 C 43.080703 58.249297 43.489219 58.570312 43.949219 58.570312 C 44.019219 58.570313 44.089922 58.559063 44.169922 58.539062 C 44.709922 58.419062 45.039922 57.879609 44.919922 57.349609 C 44.829922 56.944609 44.509453 56.652344 44.126953 56.582031 z M 39.949219 57 C 39.399219 57 38.949453 57.44 38.939453 58 C 38.939453 58.55 39.389453 59 39.939453 59 C 40.489453 59 40.939453 58.55 40.939453 58 C 40.949453 57.45 40.499219 57 39.949219 57 z"/></svg>